<svg width="106" height="106" viewBox="0 0 106 106" fill="none" xmlns="http://www.w3.org/2000/svg">
<path d="M36.5161 87.76C30.458 84.9185 25.2458 80.5586 21.3906 75.1076C17.5355 69.6567 15.1697 63.302 14.5253 56.6667H9C10.8786 79.2533 29.8489 97 53.0184 97L55.4496 96.89L41.4152 82.92L36.5161 87.76ZM39.7945 63.8533C39.0946 63.8533 38.4316 63.7433 37.879 63.56C37.3303 63.3749 36.8279 63.0748 36.4056 62.68C36.0004 62.3133 35.6689 61.8733 35.4479 61.3233C35.2269 60.81 35.1164 60.2233 35.1164 59.6H30.3278C30.3278 60.92 30.5856 62.0933 31.1013 63.0833C31.617 64.0733 32.3169 64.9167 33.1641 65.6133C34.0481 66.2733 35.0427 66.7867 36.1846 67.1167C37.2897 67.4833 38.4684 67.6667 39.7208 67.6667C41.0837 67.6667 42.373 67.4833 43.5149 67.1167C44.6936 66.75 45.725 66.2 46.5722 65.5033C47.4194 64.8067 48.1193 63.9267 48.5982 62.8633C49.077 61.8 49.3349 60.6267 49.3349 59.3067C49.3349 58.61 49.2612 57.9133 49.077 57.2533C48.9003 56.5877 48.614 55.9558 48.2298 55.3833C47.8614 54.7967 47.3457 54.2833 46.7564 53.8067C46.1302 53.33 45.3935 52.9633 44.5094 52.67C45.8407 52.0791 46.9771 51.1258 47.7878 49.92C48.1561 49.37 48.414 48.82 48.5982 48.2333C48.7823 47.6467 48.856 47.06 48.856 46.4733C48.856 45.1533 48.635 43.98 48.193 42.9533C47.5299 41.4133 47.1247 41.0833 46.3144 40.4233C45.5776 39.7267 44.5831 39.2133 43.478 38.8467C42.3361 38.5167 41.0837 38.3333 39.7208 38.3333C38.3947 38.3333 37.1792 38.5167 36.0373 38.92C34.9322 39.3233 33.9376 39.8733 33.1272 40.57C32.3537 41.2667 31.7275 42.0733 31.2486 43.0267C30.8066 43.98 30.5856 45.0067 30.5856 46.1433H35.3742C35.3742 45.52 35.4847 44.97 35.7057 44.4933C36.0373 43.7783 36.2214 43.5767 36.6266 43.2467C37.0318 42.9167 37.4738 42.6233 38.0264 42.44C38.5789 42.2567 39.1314 42.1467 39.7945 42.1467C41.2679 42.1467 42.373 42.5133 43.0728 43.2833C43.7727 44.0167 44.1411 45.08 44.1411 46.4367C44.1411 47.0967 44.0306 47.6833 43.8464 48.2333C43.6622 48.7833 43.3307 49.2233 42.9255 49.59C42.5203 49.9567 42.0046 50.25 41.4152 50.47C40.8259 50.69 40.0892 50.8 39.2788 50.8H36.4424V54.5767H39.2788C40.0892 54.5767 40.8259 54.65 41.4889 54.8333C42.1519 55.0167 42.7045 55.31 43.1465 55.6767C43.5885 56.08 43.9569 56.5567 44.2147 57.1433C44.4726 57.73 44.5831 58.4267 44.5831 59.2333C44.5831 60.7367 44.1411 61.8733 43.2938 62.6433C42.4466 63.4867 41.2679 63.8533 39.7945 63.8533ZM71.2888 42.1467C70.1101 40.9367 68.7103 39.9833 67.0896 39.3233C65.4688 38.6633 63.6639 38.3333 61.6748 38.3333H52.9816V67.6667H61.4537C63.4797 67.6667 65.3583 67.3367 67.0159 66.6767C68.6735 66.0167 70.1101 65.1 71.2888 63.89C72.4676 62.68 73.3884 61.2133 74.0146 59.5267C74.6408 57.8033 74.9724 55.8967 74.9724 53.77V52.3033C74.9724 50.1767 74.6408 48.27 74.0146 46.5467C73.3884 44.8233 72.4676 43.3567 71.2888 42.1467ZM69.8522 53.7333C69.8522 55.2733 69.6681 56.63 69.3365 57.8767C68.9682 59.0867 68.4525 60.15 67.7526 60.9933C67.0527 61.8367 66.1687 62.4967 65.1373 62.9367C64.0691 63.3767 62.8535 63.5967 61.4906 63.5967H58.1385V42.44H61.7116C64.3637 42.44 66.3897 43.2833 67.7526 44.97C69.1524 46.6567 69.8522 49.0767 69.8522 52.2667V53.7333ZM53.0184 9L50.5873 9.11L64.6216 23.08L69.5207 18.2033C81.5659 23.8867 90.1854 35.51 91.4747 49.2967H97C95.1582 26.7467 76.1879 9 53.0184 9Z" fill="white" fill-opacity="0.9"/>
</svg>
